<svg width="800" height="500" viewBox="0 0 800 500" xmlns="http://www.w3.org/2000/svg">
  <style>
    /* Using system monospace fonts for that 'code' look that works on GitHub */
    .label { 
      font-family: 'Courier New', Courier, monospace; 
      font-size: 10px; 
      fill: black; 
      font-weight: bold; 
      text-transform: uppercase;
      letter-spacing: 1px;
    }
    .tagline { 
      font-family: 'Courier New', Courier, monospace; 
      font-size: 16px; 
      fill: black; 
      text-anchor: middle; 
      letter-spacing: 2px;
      font-weight: bold;
    }
    .cursor {
      fill: #FFDE21; /* Your accent yellow */
    }
  </style>

  <!-- Background -->
  <rect width="100%" height="100%" fill="#f0f0f0"/>

  <!-- Main Border -->
  <rect x="30" y="30" width="740" height="440" fill="none" stroke="black" stroke-width="2"/>

  <!-- Corner & Side Labels -->
  <!-- Top Left -->
  <text x="30" y="20" class="label">NGN8 V.1.0</text>
  
  <!-- Top Right -->
  <text x="770" y="20" class="label" text-anchor="end">STATUS: ONLINE</text>
  
  <!-- Bottom Left -->
  <text x="30" y="485" class="label">VITÓRIA / BR</text>
  
  <!-- Bottom Right -->
  <text x="770" y="485" class="label" text-anchor="end">© 2025</text>
  
  <!-- Left Center (Rotated) -->
  <text x="20" y="250" class="label" text-anchor="middle" transform="rotate(-90 20,250)">DEFINED BY CODE</text>
  
  <!-- Right Center (Rotated) -->
  <text x="780" y="250" class="label" text-anchor="middle" transform="rotate(90 780,250)">SOFTWARE ENGINEERING</text>

  <!-- Centered Logo Group -->
  <!-- Original ViewBox 0 0 699 293. Scaled down (0.6) and centered. -->
  <!-- 699 * 0.6 = 419.4 width. (800 - 419)/2 = ~190 x position -->
  <g transform="translate(190, 110) scale(0.6)">
    <g id="#050505ff">
        <path fill="#050505" opacity="1.00" d=" M 98.20 42.20 C 100.22 41.01 102.83 39.22 105.13 40.83 C 111.36 44.66 117.90 48.00 124.02 52.02 C 126.07 53.22 126.53 55.75 126.36 57.94 C 126.21 85.91 126.56 113.89 126.18 141.86 C 123.20 137.66 120.97 133.01 118.52 128.50 C 106.29 106.32 94.39 83.95 82.08 61.81 C 80.56 59.30 79.07 56.60 79.39 53.55 C 85.38 49.31 91.98 46.07 98.20 42.20 Z" />
        <path fill="#050505" opacity="1.00" d=" M 428.09 41.06 C 429.80 39.86 432.11 39.95 433.75 41.23 C 439.74 44.98 446.07 48.15 451.97 52.04 C 454.30 53.44 454.29 56.54 454.27 58.95 C 454.09 86.58 454.50 114.22 454.06 141.85 C 449.42 134.97 446.04 127.35 441.82 120.21 C 430.71 99.68 419.56 79.17 408.30 58.72 C 407.27 57.16 407.35 55.27 407.34 53.48 C 413.98 48.90 421.21 45.27 428.09 41.06 Z" />
        <path fill="#050505" opacity="1.00" d=" M 520.79 84.04 C 546.26 69.27 571.68 54.39 597.17 39.65 C 622.95 54.18 648.34 69.39 674.01 84.13 C 674.00 113.98 674.06 143.84 673.98 173.69 C 653.44 185.57 632.96 197.55 612.44 209.46 C 607.30 212.24 602.49 215.70 597.14 218.04 C 571.58 203.51 546.30 188.46 520.81 173.79 C 520.70 143.88 520.74 113.96 520.79 84.04 M 565.62 83.59 C 559.56 91.39 559.45 102.54 563.70 111.20 C 566.87 117.92 572.73 122.81 578.83 126.81 C 574.19 129.32 569.65 132.15 565.94 135.94 C 556.40 145.31 554.55 161.33 561.22 172.81 C 567.49 182.84 579.65 187.04 590.91 187.91 C 597.30 187.98 603.81 188.44 610.09 186.93 C 619.01 185.15 627.58 180.43 632.88 172.91 C 638.88 164.06 639.21 151.62 633.42 142.59 C 628.88 135.19 621.31 130.48 613.97 126.25 C 620.90 122.52 627.93 117.81 631.37 110.44 C 634.26 104.95 634.25 98.50 633.44 92.51 C 631.70 83.62 624.22 77.06 616.04 73.95 C 608.09 70.70 599.36 70.73 590.92 71.15 C 581.42 72.13 571.71 75.95 565.62 83.59 Z" />
        <path fill="#050505" opacity="1.00" d=" M 247.41 55.40 C 263.92 40.60 291.21 40.47 307.83 55.16 C 318.18 64.78 327.85 75.11 337.98 84.96 C 339.23 86.33 341.15 87.74 340.40 89.86 C 337.27 93.87 333.27 97.11 329.81 100.81 C 326.25 104.22 323.11 108.09 318.99 110.85 C 306.61 99.30 295.03 86.91 282.88 75.12 C 279.79 72.40 274.51 72.58 271.76 75.72 C 257.37 90.00 243.09 104.40 228.74 118.72 C 226.25 120.93 224.57 124.52 225.97 127.78 C 227.38 130.63 229.94 132.65 232.08 134.92 C 242.12 144.90 252.11 154.93 262.11 164.94 C 264.38 166.70 261.72 169.03 260.35 170.36 C 254.17 176.10 248.81 182.75 242.06 187.84 C 231.84 178.10 222.06 167.90 212.01 157.99 C 202.70 148.97 197.08 136.03 197.55 123.01 C 197.60 114.70 200.52 106.69 204.68 99.59 C 208.47 93.57 213.92 88.90 218.83 83.84 C 228.38 74.39 237.75 64.74 247.41 55.40 Z" />
        <path fill="#050505" opacity="1.00" d=" M 47.37 72.18 C 49.15 71.81 51.13 72.24 52.25 73.76 C 52.97 75.74 53.28 77.85 53.26 79.95 C 53.22 111.66 53.25 143.37 53.24 175.08 C 53.14 177.43 52.91 180.41 50.53 181.63 C 46.81 182.77 43.71 180.03 40.68 178.34 C 36.61 175.75 32.02 173.90 28.36 170.70 C 27.23 169.83 27.51 168.27 27.40 167.03 C 27.43 140.04 27.36 113.05 27.43 86.06 C 27.13 82.72 30.76 81.46 33.06 80.01 C 37.89 77.52 42.25 74.03 47.37 72.18 Z" />
        <path fill="#050505" opacity="1.00" d=" M 155.31 72.20 C 157.72 71.11 160.06 72.90 162.14 73.93 C 166.75 76.61 171.39 79.24 175.96 82.00 C 177.70 82.95 178.45 85.01 178.31 86.92 C 178.32 113.30 178.30 139.68 178.33 166.06 C 178.42 168.22 177.97 170.77 175.90 171.91 C 171.25 175.02 166.21 177.50 161.44 180.42 C 159.58 181.32 157.45 183.07 155.35 181.82 C 153.32 181.13 152.22 179.01 152.45 176.95 C 152.41 143.65 152.44 110.35 152.44 77.05 C 152.16 74.98 153.32 72.90 155.31 72.20 Z" />
        <path fill="#050505" opacity="1.00" d=" M 373.66 72.71 C 375.91 71.51 379.40 71.86 380.46 74.49 C 380.75 75.95 380.71 77.45 380.74 78.94 C 380.67 111.94 380.80 144.94 380.68 177.94 C 380.81 181.87 375.73 182.88 373.03 180.95 C 367.67 177.61 361.90 174.93 356.79 171.21 C 355.00 170.13 355.38 167.83 355.28 166.07 C 355.35 139.39 355.24 112.71 355.33 86.04 C 354.98 83.22 357.72 81.87 359.76 80.69 C 364.46 78.14 368.90 75.15 373.66 72.71 Z" />
        <path fill="#050505" opacity="1.00" d=" M 483.30 72.16 C 485.44 71.18 487.57 72.68 489.44 73.61 C 494.29 76.37 499.13 79.17 503.91 82.04 C 505.99 83.17 506.30 85.79 506.27 87.92 C 506.26 113.29 506.24 138.66 506.28 164.03 C 506.46 167.25 506.15 171.30 502.67 172.65 C 497.64 175.72 492.49 178.59 487.36 181.47 C 484.30 183.72 479.71 180.62 480.34 176.96 C 480.31 143.62 480.32 110.29 480.33 76.96 C 480.04 74.85 481.32 72.88 483.30 72.16 Z" />
        <path fill="#050505" opacity="1.00" d=" M 593.27 89.09 C 598.62 88.18 605.03 88.86 608.61 93.42 C 611.09 96.18 611.01 100.20 610.46 103.64 C 609.20 109.04 604.36 112.43 599.76 114.90 C 598.77 115.35 597.62 116.30 596.54 115.49 C 591.28 112.72 585.31 109.06 584.25 102.68 C 582.57 96.55 587.11 90.10 593.27 89.09 Z" />
        <path fill="#050505" opacity="1.00" d=" M 275.32 109.94 C 294.74 129.40 314.15 148.86 333.62 168.27 C 322.78 179.22 311.86 190.08 300.96 200.98 C 295.06 207.13 286.68 211.31 278.01 210.78 C 269.70 211.39 261.87 207.38 255.82 201.97 C 268.65 188.77 281.83 175.91 294.78 162.82 C 283.00 150.59 270.86 138.70 258.82 126.72 C 264.11 120.92 269.89 115.61 275.32 109.94 Z" />
        <path fill="#050505" opacity="1.00" d=" M 79.46 111.84 C 93.92 138.00 108.20 164.24 122.57 190.44 C 123.92 192.88 125.45 195.27 126.36 197.93 C 126.65 201.14 123.15 202.56 120.87 203.95 C 114.80 207.07 109.26 211.20 103.01 213.96 C 97.53 211.88 92.76 208.25 87.60 205.47 C 84.92 203.84 81.80 202.73 79.71 200.30 C 79.33 198.58 79.41 196.80 79.39 195.05 C 79.47 167.32 79.32 139.58 79.46 111.84 Z" />
        <path fill="#050505" opacity="1.00" d=" M 407.42 112.16 C 413.15 121.71 418.11 131.69 423.58 141.39 C 431.93 156.72 440.45 171.95 448.70 187.33 C 450.60 190.88 453.00 194.23 454.24 198.11 C 454.28 201.16 451.13 202.59 448.87 203.90 C 442.77 207.02 437.21 211.17 430.94 213.94 C 427.60 212.99 424.80 210.77 421.75 209.18 C 417.08 206.16 411.97 203.84 407.47 200.56 C 407.19 171.10 407.29 141.62 407.42 112.16 Z" />
        <path fill="#050505" opacity="1.00" d=" M 580.76 151.60 C 583.03 144.41 589.84 140.13 596.19 136.89 C 601.85 139.92 607.71 143.17 611.82 148.23 C 616.27 153.62 615.44 162.54 609.83 166.82 C 605.07 170.35 598.79 170.49 593.13 169.99 C 589.15 169.35 585.08 167.69 582.58 164.40 C 579.84 160.79 579.79 155.84 580.76 151.60 Z" />
        <path fill="#050505" opacity="1.00" d=" M 218.51 234.03 C 217.73 227.17 224.37 221.31 230.98 221.64 C 235.30 221.41 239.44 222.95 243.17 225.03 C 242.00 227.34 240.83 229.66 239.72 232.00 C 236.44 230.67 232.81 228.72 229.22 230.04 C 227.23 230.40 226.73 232.83 227.47 234.43 C 231.60 237.97 237.53 238.64 241.34 242.68 C 246.59 247.51 244.41 257.29 237.97 259.97 C 230.48 263.38 221.55 261.47 215.03 256.80 C 216.45 254.26 217.94 251.77 219.45 249.30 C 223.53 252.13 229.73 255.85 234.17 251.73 C 236.18 248.06 231.74 246.07 229.07 244.85 C 224.35 242.89 218.88 239.75 218.51 234.03 Z" />
        <path fill="#050505" opacity="1.00" d=" M 260.41 222.48 C 266.68 220.67 274.03 221.51 279.02 225.99 C 288.05 233.22 288.59 248.28 280.22 256.22 C 275.00 261.68 266.52 262.90 259.56 260.52 C 252.07 257.78 246.88 249.98 247.15 242.01 C 246.62 233.49 252.41 225.25 260.41 222.48 M 263.40 230.46 C 256.76 232.85 255.20 241.57 257.67 247.48 C 259.99 253.62 269.06 255.09 273.52 250.51 C 277.70 245.58 277.77 237.46 273.37 232.64 C 270.88 229.97 266.77 229.39 263.40 230.46 Z" />
        <path fill="#050505" opacity="1.00" d=" M 290.34 222.12 C 297.71 222.07 305.08 222.09 312.46 222.11 C 312.43 224.74 312.43 227.37 312.43 230.00 C 308.02 230.00 303.61 229.99 299.20 230.01 C 299.20 232.56 299.21 235.12 299.22 237.67 C 303.36 237.66 307.51 237.64 311.66 237.70 C 311.64 240.23 311.64 242.76 311.66 245.30 C 307.51 245.36 303.36 245.33 299.21 245.33 C 299.20 250.55 299.21 255.77 299.21 261.00 C 296.25 261.00 293.30 261.00 290.35 261.00 C 290.36 248.04 290.38 235.08 290.34 222.12 Z" />
        <path fill="#050505" opacity="1.00" d=" M 339.70 222.12 C 342.94 222.09 346.18 222.08 349.42 222.13 C 351.68 231.10 353.82 240.09 356.18 249.02 C 358.77 240.11 361.00 231.10 363.40 222.13 C 365.61 222.09 367.82 222.10 370.03 222.14 C 372.42 230.96 374.45 239.90 377.21 248.61 C 379.79 239.88 381.71 230.97 383.96 222.15 C 387.21 222.08 390.45 222.09 393.70 222.09 C 390.13 235.06 386.28 247.96 382.73 260.94 C 379.46 261.04 376.19 261.00 372.93 261.00 C 370.83 253.89 369.03 246.68 366.68 239.65 C 364.42 246.69 362.53 253.84 360.52 260.95 C 357.23 261.03 353.94 261.03 350.65 260.95 C 347.08 247.98 343.21 235.10 339.70 222.12 Z" />
        <path fill="#050505" opacity="1.00" d=" M 404.14 222.15 C 406.69 221.98 409.25 222.10 411.80 222.15 C 417.01 235.10 422.26 248.03 427.45 261.00 C 424.29 261.00 421.14 261.00 417.99 261.00 C 417.06 258.35 416.07 255.73 415.10 253.11 C 410.18 253.11 405.26 253.05 400.34 253.15 C 399.42 255.75 398.47 258.35 397.57 260.96 C 394.40 261.03 391.23 261.00 388.06 260.99 C 392.79 249.15 397.63 237.34 402.34 225.49 C 402.90 224.36 403.10 222.95 404.14 222.15 M 403.45 245.36 C 406.32 245.39 409.20 245.39 412.07 245.35 C 410.70 241.66 409.33 237.96 407.79 234.34 C 406.17 237.94 404.82 241.65 403.45 245.36 Z" />
        <path fill="#050505" opacity="1.00" d=" M 429.24 222.11 C 435.95 222.49 443.02 220.98 449.44 223.50 C 455.98 226.13 457.43 235.18 453.69 240.64 C 452.30 242.74 450.00 243.92 447.92 245.20 C 452.25 250.49 456.71 255.69 461.03 260.99 C 457.33 261.01 453.63 260.99 449.93 261.01 C 445.94 256.00 442.10 250.87 438.12 245.85 C 438.09 250.88 438.11 255.91 438.11 260.94 C 435.15 261.02 432.19 261.01 429.23 260.99 C 429.25 248.03 429.23 235.07 429.24 222.11 M 438.18 228.91 C 438.08 232.43 438.09 235.96 438.13 239.49 C 440.23 239.30 442.48 239.46 444.43 238.51 C 446.49 237.19 446.71 234.37 446.12 232.20 C 444.76 229.12 440.95 229.42 438.18 228.91 Z" />
        <path fill="#050505" opacity="1.00" d=" M 463.24 222.11 C 470.59 222.08 477.95 222.11 485.31 222.09 C 485.31 224.73 485.31 227.36 485.31 230.00 C 480.90 230.00 476.50 229.99 472.10 230.01 C 472.10 232.56 472.11 235.12 472.12 237.68 C 476.34 237.66 480.56 237.65 484.78 237.69 C 484.77 240.23 484.77 242.77 484.78 245.31 C 480.56 245.35 476.33 245.34 472.12 245.33 C 472.10 247.91 472.10 250.50 472.10 253.09 C 476.50 253.10 480.90 253.10 485.31 253.09 C 485.31 255.73 485.31 258.36 485.31 261.00 C 477.95 261.00 470.59 261.00 463.23 261.00 C 463.25 248.03 463.23 235.07 463.24 222.11 Z" />
        <path fill="#050505" opacity="1.00" d=" M 312.54 222.11 C 321.57 222.11 330.59 222.04 339.62 222.15 C 339.66 224.76 339.65 227.38 339.64 230.00 C 336.57 230.00 333.52 229.99 330.46 230.02 C 330.50 240.35 330.48 250.67 330.47 261.00 C 327.54 261.00 324.62 261.00 321.70 261.00 C 321.69 250.67 321.68 240.34 321.71 230.01 C 318.65 230.00 315.60 230.00 312.56 230.00 C 312.55 227.37 312.56 224.74 312.54 222.11 Z" />
    </g>
  </g>

  <!-- Tagline -->
  <text x="400" y="325" class="tagline">Code. Solve. Repeat.</text>
  
  <!-- Blinking Cursor -->
  <rect x="525" y="312" width="10" height="15" class="cursor">
    <animate attributeName="opacity" values="1;0;1" dur="1s" repeatCount="indefinite" />
  </rect>

</svg>
