<svg xmlns="http://www.w3.org/2000/svg" width="1400" height="760" viewBox="0 0 1400 760">
  <defs>
    <filter id="grain" x="-20%" y="-20%" width="140%" height="140%">
      <feTurbulence type="fractalNoise" baseFrequency="0.9" numOctaves="2" stitchTiles="stitch"/>
      <feColorMatrix type="matrix" values="
        1 0 0 0 0
        0 1 0 0 0
        0 0 1 0 0
        0 0 0 0.05 0"/>
    </filter>
  </defs>

  <rect width="1400" height="760" fill="#F4F2ED"/>
  <rect width="1400" height="760" filter="url(#grain)" opacity="0.20"/>

  <rect x="26" y="26" width="1348" height="708" fill="none" stroke="#111111" stroke-width="4"/>
  <line x1="26" y1="96" x2="1374" y2="96" stroke="#111111" stroke-width="4"/>

  <text x="56" y="66" fill="#111111" font-size="22" letter-spacing="3"
        font-family="ui-monospace, SFMono-Regular, Menlo, Monaco, Consolas, 'Liberation Mono', 'Courier New', monospace">NGN8 V.1.0</text>
  <text x="1344" y="66" fill="#111111" text-anchor="end" font-size="22" letter-spacing="3"
        font-family="ui-monospace, SFMono-Regular, Menlo, Monaco, Consolas, 'Liberation Mono', 'Courier New', monospace">TECHNICAL ARSENAL</text>

  <text x="76" y="176" fill="#111111"
        font-family="ui-sans-serif, system-ui, -apple-system, Segoe UI, Roboto, Arial"
        font-size="64" font-weight="800">Technical Arsenal</text>

  <g font-family="ui-monospace, SFMono-Regular, Menlo, Monaco, Consolas, 'Liberation Mono', 'Courier New', monospace"
     font-size="22" fill="#111111" letter-spacing="2">
    <text x="76" y="252">FRONTEND</text>
    <line x1="76" y1="268" x2="280" y2="268" stroke="#111111" stroke-width="3"/>
  </g>

  <g font-family="ui-monospace, SFMono-Regular, Menlo, Monaco, Consolas, 'Liberation Mono', 'Courier New', monospace"
     font-size="18" fill="#111111">
    <rect x="76" y="292" width="118" height="42" fill="none" stroke="#111111" stroke-width="2"/><text x="135" y="320" text-anchor="middle">React</text>
    <rect x="210" y="292" width="170" height="42" fill="none" stroke="#111111" stroke-width="2"/><text x="295" y="320" text-anchor="middle">TypeScript</text>
    <rect x="76" y="346" width="202" height="42" fill="none" stroke="#111111" stroke-width="2"/><text x="177" y="374" text-anchor="middle">Tailwind CSS</text>
    <rect x="294" y="346" width="148" height="42" fill="none" stroke="#111111" stroke-width="2"/><text x="368" y="374" text-anchor="middle">Next.js</text>
    <rect x="76" y="400" width="210" height="42" fill="none" stroke="#111111" stroke-width="2"/><text x="181" y="428" text-anchor="middle">Framer Motion</text>
  </g>

  <g font-family="ui-monospace, SFMono-Regular, Menlo, Monaco, Consolas, 'Liberation Mono', 'Courier New', monospace"
     font-size="22" fill="#111111" letter-spacing="2">
    <text x="76" y="518">BACKEND</text>
    <line x1="76" y1="534" x2="264" y2="534" stroke="#111111" stroke-width="3"/>
  </g>

  <g font-family="ui-monospace, SFMono-Regular, Menlo, Monaco, Consolas, 'Liberation Mono', 'Courier New', monospace"
     font-size="18" fill="#111111">
    <rect x="76" y="558" width="150" height="42" fill="none" stroke="#111111" stroke-width="2"/><text x="151" y="586" text-anchor="middle">Node.js</text>
    <rect x="242" y="558" width="162" height="42" fill="none" stroke="#111111" stroke-width="2"/><text x="323" y="586" text-anchor="middle">Firebase</text>
    <rect x="76" y="612" width="188" height="42" fill="none" stroke="#111111" stroke-width="2"/><text x="170" y="640" text-anchor="middle">PostgreSQL</text>
    <rect x="280" y="612" width="132" height="42" fill="none" stroke="#111111" stroke-width="2"/><text x="346" y="640" text-anchor="middle">Python</text>
  </g>

  <g font-family="ui-monospace, SFMono-Regular, Menlo, Monaco, Consolas, 'Liberation Mono', 'Courier New', monospace"
     font-size="22" fill="#111111" letter-spacing="2">
    <text x="76" y="706">TOOLS</text>
    <line x1="76" y1="722" x2="210" y2="722" stroke="#111111" stroke-width="3"/>
  </g>

  <g font-family="ui-monospace, SFMono-Regular, Menlo, Monaco, Consolas, 'Liberation Mono', 'Courier New', monospace"
     font-size="18" fill="#111111">
    <rect x="240" y="678" width="96" height="42" fill="none" stroke="#111111" stroke-width="2"/><text x="288" y="706" text-anchor="middle">Git</text>
    <rect x="350" y="678" width="124" height="42" fill="none" stroke="#111111" stroke-width="2"/><text x="412" y="706" text-anchor="middle">Docker</text>
    <rect x="488" y="678" width="96" height="42" fill="none" stroke="#111111" stroke-width="2"/><text x="536" y="706" text-anchor="middle">Vite</text>
    <rect x="598" y="678" width="118" height="42" fill="none" stroke="#111111" stroke-width="2"/><text x="657" y="706" text-anchor="middle">Figma</text>
  </g>
</svg>
